<?xml version="1.0" encoding="UTF-8" standalone="no"?>
<svg
   xmlns:dc="http://purl.org/dc/elements/1.1/"
   xmlns:cc="http://creativecommons.org/ns#"
   xmlns:rdf="http://www.w3.org/1999/02/22-rdf-syntax-ns#"
   xmlns:svg="http://www.w3.org/2000/svg"
   xmlns="http://www.w3.org/2000/svg"
   viewBox="0 0 2666.6667 2666.6667"
   height="2666.6667"
   width="2666.6667"
   xml:space="preserve"
   id="svg2"
   version="1.1"><metadata
     id="metadata8"><rdf:RDF><cc:Work
         rdf:about=""><dc:format>image/svg+xml</dc:format><dc:type
           rdf:resource="http://purl.org/dc/dcmitype/StillImage" /></cc:Work></rdf:RDF></metadata><defs
     id="defs6"><clipPath
       id="clipPath18"
       clipPathUnits="userSpaceOnUse"><path
         id="path16"
         d="M 0,2000 H 2000 V 0 H 0 Z" /></clipPath><clipPath
       id="clipPath90"
       clipPathUnits="userSpaceOnUse"><path
         id="path88"
         d="M 0,2000 H 2000 V 0 H 0 Z" /></clipPath></defs><g
     transform="matrix(1.3333333,0,0,-1.3333333,0,2666.6667)"
     id="g10"><g
       id="g12"><g
         clip-path="url(#clipPath18)"
         id="g14"><g
           transform="translate(1188.8828,1354.6631)"
           id="g20"><path
             id="path22"
             style="fill:#174988;fill-opacity:1;fill-rule:nonzero;stroke:none"
             d="m 0,0 0.402,-450.977 c -0.882,-0.811 -1.963,-2.022 -2.711,-2.509 -1.087,-0.723 -3.823,-1.235 -4.759,-2.132 -0.843,-0.799 -1.958,-2.973 -2.078,-4.114 -0.112,-0.959 0.398,-2.965 0.967,-3.745 0.702,-0.961 3.23,-1.662 4.032,-2.544 0.918,-0.997 2.145,-3.506 2.486,-4.815 0.361,-1.38 0.857,-4.418 0.192,-5.665 -0.437,-0.833 -2.512,-1.362 -3.19,-2.015 -0.805,-0.801 -2.354,-2.678 -2.508,-3.803 -0.131,-1.025 0.552,-3.211 1.303,-3.921 0.706,-0.649 2.745,-0.966 3.689,-0.932 0.971,0.029 2.71,1.331 3.668,1.221 1.442,-0.168 4.395,-1.692 4.924,-3.04 0.421,-1.11 -0.531,-3.692 -1.319,-4.585 -0.942,-1.06 -4.263,-1.155 -5.258,-2.18 -0.4,-0.407 -0.849,-1.573 -0.813,-2.144 0.071,-0.902 1.562,-2.276 1.789,-3.154 0.252,-0.959 0.459,-3.082 -0.022,-3.954 -0.337,-0.62 -1.681,-1.502 -2.386,-1.546 -0.967,-0.04 -2.517,1.505 -3.447,1.746 -1.533,0.382 -4.801,0.556 -6.322,0.144 -1.282,-0.349 -3.209,-2.511 -4.512,-2.767 -1.477,-0.306 -4.465,1.119 -5.962,0.93 -1.484,-0.19 -4.21,-1.635 -5.517,-2.378 -1.564,-0.887 -4.422,-3.107 -5.818,-4.249 -1.724,-1.408 -4.761,-4.73 -6.575,-6.038 -1.157,-0.845 -3.619,-2.387 -4.981,-2.817 -1.056,-0.324 -3.309,-0.634 -4.374,-0.392 -1.37,0.3 -3.973,1.693 -4.838,2.787 -0.815,1.028 -0.566,4.104 -1.494,5.025 -1.313,1.306 -5.259,2.103 -7.105,2.065 -1.163,-0.02 -3.286,-1.222 -4.417,-1.467 -0.693,-0.15 -2.109,-0.188 -2.804,-0.282 -1.391,-0.185 -4.135,-0.878 -5.532,-0.939 -1.426,-0.046 -4.344,1.032 -5.668,0.53 -1.376,-0.524 -3.548,-2.897 -4.021,-4.29 -0.448,-1.262 0.024,-4.075 0.479,-5.345 0.319,-0.884 1.83,-2.201 2.153,-3.085 0.656,-1.809 0.448,-5.753 0.723,-7.654 0.159,-1.128 0.608,-3.344 0.86,-4.448 0.412,-1.827 1.903,-5.376 1.868,-7.249 -0.011,-1.128 -0.56,-3.466 -1.281,-4.342 -0.652,-0.809 -2.77,-1.417 -3.656,-1.951 -0.933,-0.562 -2.92,-1.585 -3.609,-2.436 -0.959,-1.173 -1.255,-4.537 -2.315,-5.616 -1.083,-1.108 -4.144,-2.183 -5.657,-2.475 -1.315,-0.265 -4.061,0.384 -5.378,0.11 -1.206,-0.244 -3.676,-1.132 -4.507,-2.045 -1.677,-1.848 -2.665,-7.013 -3.263,-9.43 -0.265,-1.042 -0.343,-3.195 -0.656,-4.21 -0.393,-1.242 -1.661,-3.535 -2.291,-4.684 -0.508,-0.925 -1.746,-2.661 -2.237,-3.597 -0.656,-1.251 -1.338,-4.087 -2.245,-5.161 -1.261,-1.51 -4.629,-3.947 -6.547,-4.375 -0.751,-0.162 -2.405,0.05 -3.048,0.475 -0.885,0.609 -1.166,3.334 -2.174,3.693 -0.636,0.233 -1.869,-0.868 -2.539,-0.917 -0.649,-0.052 -1.926,0.683 -2.554,0.523 -0.89,-0.243 -2.423,-1.597 -2.776,-2.441 -0.509,-1.245 0.7,-4.04 0.367,-5.33 -0.238,-0.912 -1.378,-2.506 -2.055,-3.157 -1.027,-0.99 -3.947,-1.886 -4.888,-2.948 -1.487,-1.685 -3.271,-5.977 -3.669,-8.176 -0.327,-1.789 0.417,-5.441 0.423,-7.253 0.013,-1.996 -0.027,-6.004 -0.401,-7.96 -0.382,-2.036 -1.525,-6.113 -2.661,-7.853 -0.514,-0.791 -1.936,-2.162 -2.796,-2.563 -0.897,-0.407 -2.928,-0.36 -3.905,-0.464 -1.279,-0.148 -4.114,0.287 -5.113,-0.528 -0.863,-0.687 -0.824,-3.254 -1.375,-4.212 -0.632,-1.098 -2.082,-3.892 -3.35,-3.789 -1.25,0.1 -2.109,3.135 -2.691,4.253 -0.413,0.802 -0.851,2.605 -1.398,3.332 -0.492,0.662 -1.788,1.754 -2.552,2.073 -1.168,0.491 -3.792,0.63 -5.059,0.55 -1.277,-0.078 -3.731,-1.431 -4.971,-1.14 -0.97,0.228 -2.251,1.97 -3.084,2.522 -0.836,0.552 -2.662,1.374 -3.542,1.864 -1.111,0.623 -3.518,1.66 -4.386,2.6 -1.15,1.244 -2.483,4.48 -2.999,6.094 -0.437,1.372 -1.233,4.263 -0.919,5.662 0.242,1.054 2.514,2.474 2.472,3.564 -0.032,0.962 -1.737,2.303 -2.405,3.011 -0.572,0.625 -1.656,2.222 -2.515,2.307 -0.877,0.088 -2.578,-1.044 -3.03,-1.799 -0.45,-0.742 0.052,-2.623 -0.184,-3.447 -0.138,-0.517 -0.512,-1.686 -1.002,-1.887 -0.908,-0.337 -2.683,1.175 -3.632,1.294 -0.612,0.079 -2,0.198 -2.431,-0.224 -0.665,-0.635 0.086,-2.896 -0.453,-3.637 -0.522,-0.734 -2.397,-1.849 -3.229,-1.539 -1.023,0.381 -0.933,3.298 -1.774,3.987 -0.619,0.518 -2.33,0.85 -3.123,0.735 -0.877,-0.142 -2.563,-1.067 -3.043,-1.807 -0.345,-0.549 -0.53,-1.997 -0.279,-2.591 0.266,-0.627 1.657,-1.169 2.137,-1.647 0.664,-0.669 2.144,-2.068 2.284,-3 0.169,-1.071 -0.666,-3.347 -1.472,-4.085 -0.972,-0.891 -3.807,-1.186 -5.124,-1.346 -1.213,-0.156 -3.914,0.773 -4.902,0.036 -1.149,-0.855 -1.459,-4.076 -1.577,-5.503 -0.136,-1.676 0.312,-5.071 0.748,-6.701 0.305,-1.122 1.673,-3.098 1.856,-4.247 0.216,-1.279 0.288,-4.117 -0.453,-5.198 -0.322,-0.47 -1.496,-0.976 -2.071,-0.992 -1.426,-0.046 -3.871,1.985 -5.292,2.14 -0.774,0.089 -2.471,0.018 -3.075,-0.481 -0.737,-0.612 -1.194,-2.669 -1.277,-3.634 -0.097,-1.115 0.949,-3.321 0.748,-4.427 -0.233,-1.25 -1.602,-3.583 -2.601,-4.388 -1.035,-0.817 -3.791,-2.015 -5.041,-1.608 -0.92,0.306 -2.203,2.154 -2.274,3.113 -0.079,1.096 1.545,2.902 2.041,3.879 0.36,0.71 1.444,2.085 1.408,2.884 -0.043,1.053 -1.23,3.174 -2.199,3.585 -1.027,0.427 -3.385,-0.432 -4.346,-1.001 -0.612,-0.355 -1.3,-1.705 -1.888,-2.101 -0.786,-0.539 -2.634,-1.582 -3.567,-1.36 -1.368,0.328 -3.064,2.959 -3.776,4.182 -0.815,1.411 -1.588,4.616 -2.028,6.181 -0.421,1.512 -0.464,4.882 -1.441,6.099 -0.668,0.814 -2.762,1.647 -3.804,1.792 -1.08,0.138 -3.31,-0.319 -4.309,-0.767 -1.111,-0.497 -2.917,-2.181 -3.82,-2.998 -1.226,-1.113 -3.269,-3.774 -4.579,-4.794 -0.899,-0.706 -2.851,-1.983 -3.949,-2.262 -1.326,-0.339 -4.133,0.338 -5.485,0.137 -0.825,-0.118 -2.434,-0.655 -3.166,-1.069 -1.642,-0.922 -4.87,-3.187 -5.779,-4.848 -0.941,-1.674 -0.795,-5.711 -1.074,-7.613 -0.305,-2.08 -0.235,-6.489 -1.296,-8.309 -0.982,-1.694 -4.185,-4.971 -6.147,-4.904 -1.717,0.056 -4.171,3.141 -5.033,4.617 -0.721,1.216 -0.438,4.372 -1.312,5.474 -0.686,0.884 -2.905,1.768 -3.988,2.06 -1.142,0.312 -3.587,0.006 -4.753,0.261 -1.238,0.282 -3.732,1.13 -4.719,1.935 -0.851,0.688 -1.734,2.782 -2.438,3.61 -0.98,1.159 -3.083,3.383 -4.383,4.161 -0.953,0.571 -3.278,0.779 -4.213,1.376 -1.088,0.696 -2.414,3.068 -3.489,3.784 -1.358,0.892 -4.506,2.023 -6.127,2.143 -2.008,0.151 -6.157,-0.527 -7.902,-1.519 -0.904,-0.499 -2.005,-2.352 -2.756,-3.048 -0.749,-0.687 -2.236,-2.536 -3.262,-2.48 -1.15,0.063 -2.438,2.44 -3.34,3.156 -0.897,0.703 -3.202,1.541 -3.807,2.509 -0.568,0.913 -0.303,3.217 -0.521,4.268 -0.164,0.745 -0.515,2.237 -0.874,2.897 -0.258,0.48 -0.871,1.602 -1.417,1.66 -1.018,0.109 -2.752,-1.604 -3.261,-2.482 -0.644,-1.109 -0.068,-3.929 -0.665,-5.053 -0.349,-0.646 -2.065,-1.211 -2.218,-1.934 -0.347,-1.605 1.833,-4.599 2.784,-5.936 0.503,-0.712 2.321,-1.578 2.498,-2.43 0.264,-1.249 -1.348,-3.593 -1.938,-4.73 -0.439,-0.86 -1.316,-2.661 -2.061,-3.27 -0.845,-0.684 -2.996,-1.395 -4.073,-1.523 -0.887,-0.1 -2.871,-0.166 -3.534,0.437 -1.057,0.951 -1.496,4.173 -1.276,5.585 0.155,1.038 1.684,2.669 2.118,3.618 0.295,0.663 1.195,2.074 0.904,2.734 -0.495,1.131 -3.249,1.943 -4.476,2.02 -0.879,0.06 -2.512,-0.923 -3.397,-1.024 -1.172,-0.141 -3.59,0.532 -4.752,0.262 -1.734,-0.42 -4.428,-3.267 -6.185,-3.597 -1.343,-0.24 -4.264,0.061 -5.38,0.839 -0.831,0.581 -1.516,2.643 -1.957,3.544 -0.491,0.978 -0.946,3.281 -1.774,3.995 -0.618,0.517 -2.324,1.014 -3.108,0.839 -1.867,-0.418 -4.787,-3.343 -5.806,-4.966 -0.613,-0.981 -1.362,-3.344 -1.177,-4.486 0.141,-0.865 1.328,-2.296 1.936,-2.937 0.578,-0.609 2.247,-1.27 2.692,-1.972 0.475,-0.774 0.781,-2.681 0.631,-3.577 -0.195,-1.187 -1.382,-3.454 -2.32,-4.19 -0.589,-0.456 -2.274,-0.327 -2.878,-0.75 -0.719,-0.511 -1.203,-2.553 -2.005,-2.917 -0.867,-0.391 -3.089,-0.198 -3.764,0.462 -0.647,0.628 0.101,2.916 -0.526,3.561 -0.856,0.852 -3.591,0.629 -4.801,0.749 -0.632,0.061 -1.859,0.109 -2.985,0.149 -0.324,0.425 -0.599,0.831 -0.679,1.178 -0.181,0.921 0.8,2.79 0.67,3.729 -0.132,0.883 -1.489,2.312 -1.579,3.198 -0.139,1.277 0.761,3.801 1.255,5 0.342,0.838 1.672,2.25 1.85,3.141 0.277,1.462 -1.352,4.467 -0.917,5.894 0.248,0.812 1.858,1.789 2.305,2.516 1.114,1.799 3.394,5.842 2.99,7.918 -0.254,1.331 -3.447,2.664 -3.689,4.005 -0.225,1.319 1.189,3.926 2.057,4.951 0.54,0.643 2.321,1.133 2.829,1.8 0.503,0.64 0.982,2.3 0.966,3.118 -0.005,0.891 -1.269,2.499 -1.151,3.381 0.169,1.209 1.729,3.409 2.785,4.031 1.151,0.672 4.145,-0.15 5.278,0.537 1.003,0.599 2.414,2.749 2.602,3.906 0.152,0.916 -0.536,2.757 -0.955,3.579 -0.543,1.072 -2.096,2.963 -3.011,3.747 -0.751,0.645 -2.811,1.205 -3.447,1.975 -0.727,0.88 -1.909,3.251 -1.484,4.306 0.386,0.945 2.846,1.183 3.638,1.827 0.887,0.715 2.629,2.426 2.873,3.548 0.16,0.733 -0.87,2.167 -0.745,2.906 0.206,1.203 1.49,3.966 2.709,4.053 1.184,0.083 2.019,-3.345 3.197,-3.537 0.598,-0.093 1.649,0.797 2.103,1.195 0.794,0.671 1.545,3.21 2.587,3.266 0.806,0.048 1.485,-2.164 2.282,-2.27 0.807,-0.109 2.278,1.025 2.815,1.639 0.805,0.928 1.609,3.372 1.825,4.584 0.215,1.184 -0.786,3.802 -0.122,4.81 0.768,1.165 4.075,1.234 5.192,2.066 1.126,0.84 2.658,3.275 3.485,4.411 0.816,1.118 2.57,3.338 3.117,4.621 0.453,1.07 0.982,3.403 0.953,4.567 -0.043,1.205 -1.719,3.545 -1.278,4.665 0.391,0.966 2.532,1.914 3.54,2.169 0.788,0.194 2.497,-0.522 3.237,-0.187 0.834,0.367 1.508,2.36 2.285,2.834 0.57,0.352 2.164,0.064 2.643,0.545 0.49,0.509 0.573,2.085 0.512,2.796 -0.073,0.884 -1.384,2.44 -1.239,3.307 0.152,0.973 2.252,2.093 2.469,3.056 0.147,0.619 -0.707,1.855 -0.568,2.483 0.164,0.761 1.543,1.792 1.901,2.494 0.578,1.115 1.173,3.581 1.467,4.801 0.377,1.553 0.336,4.911 1.146,6.29 0.558,0.958 2.408,2.318 3.39,2.825 0.656,0.339 2.143,0.53 2.841,0.757 0.989,0.323 3,0.94 3.899,1.47 1.004,0.591 2.829,2.109 3.514,3.046 1.266,1.736 3.057,5.799 3.39,7.933 0.308,1.975 -0.23,6.025 -0.764,7.948 -0.285,1.05 -1.506,2.927 -1.854,3.959 -0.331,1 -0.396,3.186 -0.87,4.133 -0.58,1.135 -2.897,2.626 -3.401,3.807 -0.366,0.853 -0.559,2.819 -0.303,3.717 0.394,1.346 2.676,3.272 3.337,4.51 0.528,0.972 1.354,3.067 1.531,4.152 0.307,1.858 0.662,5.847 -0.185,7.541 -0.459,0.925 -2.324,2.135 -3.268,2.579 -0.874,0.415 -3.034,0.224 -3.78,0.83 -0.554,0.45 -1.137,1.872 -1.199,2.582 -0.114,1.484 1.489,4.253 1.615,5.738 0.11,1.257 0.008,3.87 -0.491,5.032 -0.512,1.181 -2.535,2.914 -3.391,3.881 -1.166,1.313 -3.981,3.603 -4.698,5.207 -0.682,1.526 -1.279,5.078 -0.716,6.657 0.498,1.409 3.153,3.188 4.251,4.206 1.144,1.068 3.93,2.779 4.719,4.142 0.51,0.888 0.986,3.019 0.781,4.028 -0.244,1.217 -2.277,2.981 -2.793,4.106 -0.607,1.329 -1.568,4.201 -1.513,5.668 0.072,1.743 1.357,5.127 2.303,6.591 0.721,1.102 2.753,2.894 3.847,3.634 0.801,0.538 2.893,0.862 3.526,1.606 0.765,0.906 1.235,4.599 1.235,4.599 l 10.975,409.395 c 0.243,-0.91 0.527,-1.72 0.868,-2.292 0.738,-1.226 3.167,-2.87 4.192,-3.854 1.73,-1.631 4.839,-5.297 6.793,-6.646 1.755,-1.213 5.693,-3.005 7.746,-3.603 4.464,-1.3 13.849,-3.004 18.467,-2.402 4.165,0.542 11.583,4.951 15.529,6.367 3.389,1.207 10.389,2.962 13.76,4.237 3.831,1.463 11.395,4.731 14.951,6.773 1.982,1.148 4.874,3.169 7.652,5.188 8.98,-0.365 30.244,-1.227 38.529,-1.445 14.925,-0.383 44.657,-0.552 59.584,-0.427 40.061,0.339 160.249,1.367 160.249,1.367 z" /></g><g
           transform="translate(1870.9346,1009.6152)"
           id="g24"><path
             id="path26"
             style="fill:none;stroke:#174988;stroke-width:68.40200043;stroke-linecap:butt;stroke-linejoin:miter;stroke-miterlimit:10;stroke-dasharray:30.405, 30.405;stroke-dashoffset:0;stroke-opacity:1"
             d="m 0,0 c 0,-481.004 -389.931,-870.935 -870.935,-870.935 -481.003,0 -870.934,389.931 -870.934,870.935 0,481.004 389.931,870.935 870.934,870.935 C -389.931,870.935 0,481.004 0,0 Z" /></g><g
           transform="translate(1000,1474.5879)"
           id="g28"><path
             id="path30"
             style="fill:#b3b3b3;fill-opacity:1;fill-rule:nonzero;stroke:none"
             d="m 0,0 c -256.797,0 -464.973,-208.175 -464.973,-464.973 0,-256.798 208.176,-464.972 464.973,-464.972 256.797,0 464.973,208.174 464.973,464.972 C 464.973,-208.175 256.797,0 0,0 m 0,-18.24 c 60.316,0 118.819,-11.809 173.883,-35.099 53.194,-22.5 100.971,-54.713 142.005,-95.746 41.032,-41.034 73.246,-88.811 95.745,-142.005 23.291,-55.064 35.099,-113.566 35.099,-173.883 0,-60.316 -11.808,-118.819 -35.099,-173.882 C 389.134,-692.05 356.92,-739.827 315.888,-780.86 274.854,-821.893 227.077,-854.106 173.883,-876.606 118.819,-899.896 60.316,-911.705 0,-911.705 c -60.316,0 -118.819,11.809 -173.883,35.099 -53.194,22.5 -100.971,54.713 -142.004,95.746 -41.033,41.033 -73.247,88.81 -95.746,142.005 -23.29,55.063 -35.099,113.566 -35.099,173.882 0,60.317 11.809,118.819 35.099,173.883 22.499,53.194 54.713,100.971 95.746,142.005 41.033,41.033 88.81,73.246 142.004,95.746 55.064,23.29 113.567,35.099 173.883,35.099" /></g></g></g><text
       id="text34"
       style="font-variant:normal;font-weight:normal;font-stretch:normal;font-size:304.00915527px;font-family:'Bodoni 72 Oldstyle';-inkscape-font-specification:BodoniSvtyTwoOSITCTT-Book;writing-mode:lr-tb;fill:#174988;fill-opacity:1;fill-rule:nonzero;stroke:none"
       transform="matrix(0.66224915,0.7492837,0.7492837,-0.66224915,502.2559,1272.8975)"><tspan
         id="tspan32"
         y="0"
         x="0">H</tspan></text>
<text
       id="text38"
       style="font-variant:normal;font-weight:normal;font-stretch:normal;font-size:304.00915527px;font-family:'Bodoni 72 Oldstyle';-inkscape-font-specification:BodoniSvtyTwoOSITCTT-Book;writing-mode:lr-tb;fill:#174988;fill-opacity:1;fill-rule:nonzero;stroke:none"
       transform="matrix(0.87891859,0.47697182,0.47697182,-0.87891859,633.0688,1425.4443)"><tspan
         id="tspan36"
         y="0"
         x="0">O</tspan></text>
<text
       id="text42"
       style="font-variant:normal;font-weight:normal;font-stretch:normal;font-size:304.00915527px;font-family:'Bodoni 72 Oldstyle';-inkscape-font-specification:BodoniSvtyTwoOSITCTT-Book;writing-mode:lr-tb;fill:#174988;fill-opacity:1;fill-rule:nonzero;stroke:none"
       transform="matrix(0.98987378,0.14195033,0.14195033,-0.98987378,810.2607,1524.8169)"><tspan
         id="tspan40"
         y="0"
         x="0">O</tspan></text>
<text
       id="text46"
       style="font-variant:normal;font-weight:normal;font-stretch:normal;font-size:304.00912476px;font-family:'Bodoni 72 Oldstyle';-inkscape-font-specification:BodoniSvtyTwoOSITCTT-Book;writing-mode:lr-tb;fill:#174988;fill-opacity:1;fill-rule:nonzero;stroke:none"
       transform="matrix(0.98819796,-0.15318224,-0.15318224,-0.98819796,1012.9775,1550.9961)"><tspan
         id="tspan44"
         y="0"
         x="0">S</tspan></text>
<text
       id="text50"
       style="font-variant:normal;font-weight:normal;font-stretch:normal;font-size:304.00915527px;font-family:'Bodoni 72 Oldstyle';-inkscape-font-specification:BodoniSvtyTwoOSITCTT-Book;writing-mode:lr-tb;fill:#174988;fill-opacity:1;fill-rule:nonzero;stroke:none"
       transform="matrix(0.93800266,-0.34662804,-0.34662804,-0.93800266,1152.2598,1527.6064)"><tspan
         id="tspan48"
         y="0"
         x="0">I</tspan></text>
<text
       id="text54"
       style="font-variant:normal;font-weight:normal;font-stretch:normal;font-size:304.00921631px;font-family:'Bodoni 72 Oldstyle';-inkscape-font-specification:BodoniSvtyTwoOSITCTT-Book;writing-mode:lr-tb;fill:#174988;fill-opacity:1;fill-rule:nonzero;stroke:none"
       transform="matrix(0.83960547,-0.54319669,-0.54319669,-0.83960547,1234.0879,1503.3628)"><tspan
         id="tspan52"
         y="0"
         x="0">E</tspan></text>
<text
       id="text58"
       style="font-variant:normal;font-weight:normal;font-stretch:normal;font-size:304.00918579px;font-family:'Bodoni 72 Oldstyle';-inkscape-font-specification:BodoniSvtyTwoOSITCTT-Book;writing-mode:lr-tb;fill:#174988;fill-opacity:1;fill-rule:nonzero;stroke:none"
       transform="matrix(0.65266054,-0.75765046,-0.75765046,-0.65266054,1372.5205,1416.2251)"><tspan
         id="tspan56"
         y="0"
         x="0">R</tspan></text>
<text
       id="text62"
       style="font-variant:normal;font-weight:normal;font-stretch:normal;font-size:304.00915527px;font-family:'Bodoni 72 Oldstyle';-inkscape-font-specification:BodoniSvtyTwoOSITCTT-Book;writing-mode:lr-tb;fill:#666666;fill-opacity:1;fill-rule:nonzero;stroke:none"
       transform="matrix(0.7460331,-0.66590887,-0.66590887,-0.7460331,406.4023,526.1738)"><tspan
         id="tspan60"
         y="0"
         x="0">N</tspan></text>
<text
       id="text66"
       style="font-variant:normal;font-weight:normal;font-stretch:normal;font-size:304.00912476px;font-family:'Bodoni 72 Oldstyle';-inkscape-font-specification:BodoniSvtyTwoOSITCTT-Book;writing-mode:lr-tb;fill:#666666;fill-opacity:1;fill-rule:nonzero;stroke:none"
       transform="matrix(0.91888463,-0.39452633,-0.39452633,-0.91888463,591.9707,367.9844)"><tspan
         id="tspan64"
         y="0"
         x="0">O</tspan></text>
<text
       id="text70"
       style="font-variant:normal;font-weight:normal;font-stretch:normal;font-size:304.00918579px;font-family:'Bodoni 72 Oldstyle';-inkscape-font-specification:BodoniSvtyTwoOSITCTT-Book;writing-mode:lr-tb;fill:#666666;fill-opacity:1;fill-rule:nonzero;stroke:none"
       transform="matrix(0.99532618,-0.09657011,-0.09657011,-0.99532618,835.0889,274.1504)"><tspan
         id="tspan68"
         y="0"
         x="0">T</tspan></text>
<text
       id="text74"
       style="font-variant:normal;font-weight:normal;font-stretch:normal;font-size:304.00915527px;font-family:'Bodoni 72 Oldstyle';-inkscape-font-specification:BodoniSvtyTwoOSITCTT-Book;writing-mode:lr-tb;fill:#666666;fill-opacity:1;fill-rule:nonzero;stroke:none"
       transform="matrix(0.98391408,0.17864231,0.17864231,-0.98391408,1050.2129,258.0947)"><tspan
         id="tspan72"
         y="0"
         x="0">A</tspan></text>
<text
       id="text78"
       style="font-variant:normal;font-weight:normal;font-stretch:normal;font-size:304.00918579px;font-family:'Bodoni 72 Oldstyle';-inkscape-font-specification:BodoniSvtyTwoOSITCTT-Book;writing-mode:lr-tb;fill:#666666;fill-opacity:1;fill-rule:nonzero;stroke:none"
       transform="matrix(0.89539204,0.44527866,0.44527866,-0.89539204,1266.8262,303.2422)"><tspan
         id="tspan76"
         y="0"
         x="0">R</tspan></text>
<text
       id="text82"
       style="font-variant:normal;font-weight:normal;font-stretch:normal;font-size:304.00912476px;font-family:'Bodoni 72 Oldstyle';-inkscape-font-specification:BodoniSvtyTwoOSITCTT-Book;writing-mode:lr-tb;fill:#666666;fill-opacity:1;fill-rule:nonzero;stroke:none"
       transform="matrix(0.73734599,0.67551528,0.67551528,-0.73734599,1458.7139,404.2637)"><tspan
         id="tspan80"
         y="0"
         x="0">Y</tspan></text>
<g
       id="g84"><g
         clip-path="url(#clipPath90)"
         id="g86"><g
           transform="translate(355.6318,1110.4409)"
           id="g92"><path
             id="path94"
             style="fill:#666666;fill-opacity:1;fill-rule:nonzero;stroke:none"
             d="m 0,0 25.027,-77.024 h 80.987 l -65.52,-47.603 25.027,-77.025 -65.521,47.604 -65.521,-47.604 25.027,77.025 -65.52,47.603 h 80.988 z" /></g><g
           transform="translate(1644.3682,1110.4409)"
           id="g96"><path
             id="path98"
             style="fill:#666666;fill-opacity:1;fill-rule:nonzero;stroke:none"
             d="m 0,0 25.026,-77.024 h 80.989 L 40.494,-124.627 65.521,-201.652 0,-154.048 l -65.521,-47.604 25.027,77.025 -65.521,47.603 h 80.989 z" /></g></g></g></g></svg>